<svg xmlns="http://www.w3.org/2000/svg" xmlns:xlink="http://www.w3.org/1999/xlink" contentStyleType="text/css" data-diagram-type="CLASS" height="2151.5625px" preserveAspectRatio="none" style="width:1276px;height:2151px;background:#FFFFFF;" version="1.1" viewBox="0 0 1276 2151" width="1276.5625px" zoomAndPan="magnify"><defs/><g><!--cluster reflectlist--><g class="cluster" data-entity="reflectlist" data-source-line="6" data-uid="ent0002" id="cluster_reflectlist"><path d="M13.2813,9.375 L134.2163,9.375 A5.8594,5.8594 0 0 1 138.1226,13.2813 L149.0601,44.2139 L1261.7188,44.2139 A3.9063,3.9063 0 0 1 1265.625,48.1201 L1265.625,2136.7188 A3.9063,3.9063 0 0 1 1261.7188,2140.625 L13.2813,2140.625 A3.9063,3.9063 0 0 1 9.375,2136.7188 L9.375,13.2813 A3.9063,3.9063 0 0 1 13.2813,9.375" fill="none" style="stroke:#000000;stroke-width:2.3438;"/><line style="stroke:#000000;stroke-width:2.3438;" x1="9.375" x2="149.0601" y1="44.2139" y2="44.2139"/><text fill="#000000" font-family="sans-serif" font-size="21.875" font-weight="bold" lengthAdjust="spacing" textLength="119.3726" x="15.625" y="32.8049">reflectlist</text></g><!--class Main--><g class="entity" data-entity="Main" data-source-line="8" data-uid="ent0003" id="entity_Main"><rect fill="#F1F1F1" height="125.9277" rx="3.9063" ry="3.9063" style="stroke:#181818;stroke-width:0.7813;" width="258.7234" x="146.875" y="284.375"/><ellipse cx="243.486" cy="309.375" fill="#C2C2C2" rx="17.1875" ry="17.1875" style="stroke:#181818;stroke-width:1.5625;"/><path d="M248.1247,318.1885 Q247.2214,318.6523 246.2204,318.8721 Q245.2194,319.1162 244.1208,319.1162 Q240.2145,319.1162 238.1393,316.5527 Q236.0886,313.9648 236.0886,309.082 Q236.0886,304.1992 238.1393,301.6113 Q240.2145,299.0234 244.1208,299.0234 Q245.2194,299.0234 246.2204,299.2676 Q247.2458,299.5117 248.1247,299.9756 L248.1247,304.2236 Q247.1481,303.3203 246.2204,302.9053 Q245.2927,302.4658 244.3161,302.4658 Q242.2165,302.4658 241.1423,304.1504 Q240.0681,305.8105 240.0681,309.082 Q240.0681,312.3535 241.1423,314.0381 Q242.2165,315.6982 244.3161,315.6982 Q245.2927,315.6982 246.2204,315.2832 Q247.1481,314.8438 248.1247,313.9404 L248.1247,318.1885 Z " fill="#000000"/><text fill="#000000" font-family="sans-serif" font-size="21.875" lengthAdjust="spacing" textLength="52.2202" x="275.5173" y="316.9479">Main</text><line style="stroke:#181818;stroke-width:0.7813;" x1="148.4375" x2="404.0359" y1="334.375" y2="334.375"/><line style="stroke:#181818;stroke-width:0.7813;" x1="148.4375" x2="404.0359" y1="346.875" y2="346.875"/><text fill="#000000" font-family="sans-serif" font-size="21.875" lengthAdjust="spacing" textLength="217.1265" x="156.25" y="373.4299">+start(Stage) : void</text><text fill="#000000" font-family="sans-serif" font-size="21.875" lengthAdjust="spacing" textLength="239.9734" x="156.25" y="398.8937">+main(String[]) : void</text></g><g class="entity" data-entity="GMN4" data-source-line="12" data-uid="ent0005" id="entity_GMN4"><path d="M461.7188,328.125 L461.7188,341.4063 L406.2813,347.6563 L461.7188,353.9063 L461.7188,367.395 A0,0 0 0 0 461.7188,367.395 L882.502,367.395 A0,0 0 0 0 882.502,367.395 L882.502,343.75 L866.877,328.125 L461.7188,328.125 A0,0 0 0 0 461.7188,328.125" fill="#FAFAFA" style="stroke:#181818;stroke-width:0.7813;"/><path d="M866.877,328.125 L866.877,343.75 L882.502,343.75 L866.877,328.125" fill="#FAFAFA" style="stroke:#181818;stroke-width:0.7813;"/><text fill="#000000" font-family="sans-serif" font-size="20.3125" lengthAdjust="spacing" textLength="387.9707" x="471.0938" y="354.792">extends javafx.application.Application</text></g><!--class LoginController--><g class="entity" data-entity="LoginController" data-source-line="14" data-uid="ent0007" id="entity_LoginController"><rect fill="#F1F1F1" height="125.9277" rx="3.9063" ry="3.9063" style="stroke:#181818;stroke-width:0.7813;" width="310.1746" x="121.0938" y="531.25"/><ellipse cx="186.2436" cy="556.25" fill="#C2C2C2" rx="17.1875" ry="17.1875" style="stroke:#181818;stroke-width:1.5625;"/><path d="M190.8823,565.0635 Q189.9789,565.5273 188.978,565.7471 Q187.977,565.9912 186.8784,565.9912 Q182.9721,565.9912 180.8969,563.4277 Q178.8461,560.8398 178.8461,555.957 Q178.8461,551.0742 180.8969,548.4863 Q182.9721,545.8984 186.8784,545.8984 Q187.977,545.8984 188.978,546.1426 Q190.0034,546.3867 190.8823,546.8506 L190.8823,551.0986 Q189.9057,550.1953 188.978,549.7803 Q188.0502,549.3408 187.0737,549.3408 Q184.9741,549.3408 183.8998,551.0254 Q182.8256,552.6855 182.8256,555.957 Q182.8256,559.2285 183.8998,560.9131 Q184.9741,562.5732 187.0737,562.5732 Q188.0502,562.5732 188.978,562.1582 Q189.9057,561.7188 190.8823,560.8154 L190.8823,565.0635 Z " fill="#000000"/><text fill="#000000" font-family="sans-serif" font-size="21.875" lengthAdjust="spacing" textLength="167.4805" x="217.388" y="563.8229">LoginController</text><line style="stroke:#181818;stroke-width:0.7813;" x1="122.6563" x2="429.7058" y1="581.25" y2="581.25"/><text fill="#000000" font-family="sans-serif" font-size="21.875" lengthAdjust="spacing" textLength="291.4246" x="130.4688" y="607.8049">-usernameField : TextField</text><line style="stroke:#181818;stroke-width:0.7813;" x1="122.6563" x2="429.7058" y1="619.2139" y2="619.2139"/><text fill="#000000" font-family="sans-serif" font-size="21.875" lengthAdjust="spacing" textLength="156.2546" x="130.4688" y="645.7687">+login() : void</text></g><!--class DashboardController--><g class="entity" data-entity="DashboardController" data-source-line="19" data-uid="ent0008" id="entity_DashboardController"><rect fill="#F1F1F1" height="176.8555" rx="3.9063" ry="3.9063" style="stroke:#181818;stroke-width:0.7813;" width="367.3935" x="341.4063" y="778.125"/><ellipse cx="405.4554" cy="803.125" fill="#C2C2C2" rx="17.1875" ry="17.1875" style="stroke:#181818;stroke-width:1.5625;"/><path d="M410.0941,811.9385 Q409.1908,812.4023 408.1898,812.6221 Q407.1888,812.8662 406.0902,812.8662 Q402.1839,812.8662 400.1087,810.3027 Q398.0579,807.7148 398.0579,802.832 Q398.0579,797.9492 400.1087,795.3613 Q402.1839,792.7734 406.0902,792.7734 Q407.1888,792.7734 408.1898,793.0176 Q409.2152,793.2617 410.0941,793.7256 L410.0941,797.9736 Q409.1175,797.0703 408.1898,796.6553 Q407.262,796.2158 406.2855,796.2158 Q404.1859,796.2158 403.1116,797.9004 Q402.0374,799.5605 402.0374,802.832 Q402.0374,806.1035 403.1116,807.7881 Q404.1859,809.4482 406.2855,809.4482 Q407.262,809.4482 408.1898,809.0332 Q409.1175,808.5938 410.0941,807.6904 L410.0941,811.9385 Z " fill="#000000"/><text fill="#000000" font-family="sans-serif" font-size="21.875" lengthAdjust="spacing" textLength="227.1454" x="436.3552" y="810.6979">DashboardController</text><line style="stroke:#181818;stroke-width:0.7813;" x1="342.9688" x2="707.2372" y1="828.125" y2="828.125"/><text fill="#000000" font-family="sans-serif" font-size="21.875" lengthAdjust="spacing" textLength="239.3967" x="350.7813" y="854.6799">-greetingLabel : Label</text><line style="stroke:#181818;stroke-width:0.7813;" x1="342.9688" x2="707.2372" y1="866.0889" y2="866.0889"/><text fill="#000000" font-family="sans-serif" font-size="21.875" lengthAdjust="spacing" textLength="194.1406" x="350.7813" y="892.6437">+initialize() : void</text><text fill="#000000" font-family="sans-serif" font-size="21.875" lengthAdjust="spacing" textLength="348.6435" x="350.7813" y="918.1076">+openMood(ActionEvent) : void</text><text fill="#000000" font-family="sans-serif" font-size="21.875" lengthAdjust="spacing" textLength="343.132" x="350.7813" y="943.5715">+openTodo(ActionEvent) : void</text></g><!--class MoodController--><g class="entity" data-entity="MoodController" data-source-line="26" data-uid="ent0009" id="entity_MoodController"><rect fill="#F1F1F1" height="253.2471" rx="3.9063" ry="3.9063" style="stroke:#181818;stroke-width:0.7813;" width="275.5035" x="371.875" y="1098.4375"/><ellipse cx="421.3652" cy="1123.4375" fill="#C2C2C2" rx="17.1875" ry="17.1875" style="stroke:#181818;stroke-width:1.5625;"/><path d="M426.0039,1132.251 Q425.1006,1132.7148 424.0996,1132.9346 Q423.0986,1133.1787 422,1133.1787 Q418.0937,1133.1787 416.0185,1130.6152 Q413.9677,1128.0273 413.9677,1123.1445 Q413.9677,1118.2617 416.0185,1115.6738 Q418.0937,1113.0859 422,1113.0859 Q423.0986,1113.0859 424.0996,1113.3301 Q425.125,1113.5742 426.0039,1114.0381 L426.0039,1118.2861 Q425.0273,1117.3828 424.0996,1116.9678 Q423.1718,1116.5283 422.1953,1116.5283 Q420.0957,1116.5283 419.0215,1118.2129 Q417.9472,1119.873 417.9472,1123.1445 Q417.9472,1126.416 419.0215,1128.1006 Q420.0957,1129.7607 422.1953,1129.7607 Q423.1718,1129.7607 424.0996,1129.3457 Q425.0273,1128.9063 426.0039,1128.0029 L426.0039,1132.251 Z " fill="#000000"/><text fill="#000000" font-family="sans-serif" font-size="21.875" lengthAdjust="spacing" textLength="167.6086" x="449.0297" y="1131.0104">MoodController</text><line style="stroke:#181818;stroke-width:0.7813;" x1="373.4375" x2="645.816" y1="1148.4375" y2="1148.4375"/><text fill="#000000" font-family="sans-serif" font-size="21.875" lengthAdjust="spacing" text-decoration="underline" textLength="256.7535" x="381.25" y="1174.9924">+selectedMood : String</text><text fill="#000000" font-family="sans-serif" font-size="21.875" lengthAdjust="spacing" textLength="209.1583" x="381.25" y="1200.4562">-moodLabel : Label</text><text fill="#000000" font-family="sans-serif" font-size="21.875" lengthAdjust="spacing" textLength="195.5292" x="381.25" y="1225.9201">-ayatLabel : Label</text><text fill="#000000" font-family="sans-serif" font-size="21.875" lengthAdjust="spacing" textLength="188.3514" x="381.25" y="1251.384">-duaLabel : Label</text><line style="stroke:#181818;stroke-width:0.7813;" x1="373.4375" x2="645.816" y1="1262.793" y2="1262.793"/><text fill="#000000" font-family="sans-serif" font-size="21.875" lengthAdjust="spacing" textLength="194.1406" x="381.25" y="1289.3478">+initialize() : void</text><text fill="#000000" font-family="sans-serif" font-size="21.875" lengthAdjust="spacing" textLength="154.9515" x="381.25" y="1314.8117">+back() : void</text><text fill="#000000" font-family="sans-serif" font-size="21.875" lengthAdjust="spacing" textLength="152.1957" x="381.25" y="1340.2756">+todo() : void</text></g><!--class TodoController--><g class="entity" data-entity="TodoController" data-source-line="36" data-uid="ent0010" id="entity_TodoController"><rect fill="#F1F1F1" height="355.1025" rx="3.9063" ry="3.9063" style="stroke:#181818;stroke-width:0.7813;" width="404.4891" x="557.0313" y="1517.9688"/><ellipse cx="671.5866" cy="1542.9688" fill="#C2C2C2" rx="17.1875" ry="17.1875" style="stroke:#181818;stroke-width:1.5625;"/><path d="M676.2253,1551.7822 Q675.322,1552.2461 674.321,1552.4658 Q673.32,1552.71 672.2214,1552.71 Q668.3151,1552.71 666.2399,1550.1465 Q664.1891,1547.5586 664.1891,1542.6758 Q664.1891,1537.793 666.2399,1535.2051 Q668.3151,1532.6172 672.2214,1532.6172 Q673.32,1532.6172 674.321,1532.8613 Q675.3464,1533.1055 676.2253,1533.5693 L676.2253,1537.8174 Q675.2487,1536.9141 674.321,1536.499 Q673.3932,1536.0596 672.4167,1536.0596 Q670.3171,1536.0596 669.2429,1537.7441 Q668.1686,1539.4043 668.1686,1542.6758 Q668.1686,1545.9473 669.2429,1547.6318 Q670.3171,1549.292 672.4167,1549.292 Q673.3932,1549.292 674.321,1548.877 Q675.2487,1548.4375 676.2253,1547.5342 L676.2253,1551.7822 Z " fill="#000000"/><text fill="#000000" font-family="sans-serif" font-size="21.875" lengthAdjust="spacing" textLength="162.0972" x="703.6179" y="1550.5417">TodoController</text><line style="stroke:#181818;stroke-width:0.7813;" x1="558.5938" x2="959.9579" y1="1567.9688" y2="1567.9688"/><text fill="#000000" font-family="sans-serif" font-size="21.875" lengthAdjust="spacing" textLength="349.3698" x="566.4063" y="1594.5236">-taskList : ListView&lt;CheckBox&gt;</text><text fill="#000000" font-family="sans-serif" font-size="21.875" lengthAdjust="spacing" textLength="227.7222" x="566.4063" y="1619.9875">-taskField : TextField</text><text fill="#000000" font-family="sans-serif" font-size="21.875" lengthAdjust="spacing" textLength="264.7964" x="566.4063" y="1645.4514">-motivationLabel : Label</text><line style="stroke:#181818;stroke-width:0.7813;" x1="558.5938" x2="959.9579" y1="1656.8604" y2="1656.8604"/><text fill="#000000" font-family="sans-serif" font-size="21.875" lengthAdjust="spacing" textLength="194.1406" x="566.4063" y="1683.4152">+initialize() : void</text><text fill="#000000" font-family="sans-serif" font-size="21.875" lengthAdjust="spacing" textLength="194.9738" x="566.4063" y="1708.8791">+addTask() : void</text><text fill="#000000" font-family="sans-serif" font-size="21.875" lengthAdjust="spacing" textLength="317.54" x="566.4063" y="1734.343">+deleteSelectedTask() : void</text><text fill="#000000" font-family="sans-serif" font-size="21.875" lengthAdjust="spacing" textLength="286.5112" x="566.4063" y="1759.8068">+back(ActionEvent) : void</text><text fill="#000000" font-family="sans-serif" font-size="21.875" lengthAdjust="spacing" textLength="244.342" x="566.4063" y="1785.2707">-setupListView() : void</text><text fill="#000000" font-family="sans-serif" font-size="21.875" lengthAdjust="spacing" textLength="201.5106" x="566.4063" y="1810.7346">-loadTasks() : void</text><text fill="#000000" font-family="sans-serif" font-size="21.875" lengthAdjust="spacing" textLength="385.7391" x="566.4063" y="1836.1984">-updateCheckbox(CheckBox) : void</text><text fill="#000000" font-family="sans-serif" font-size="21.875" lengthAdjust="spacing" textLength="320.9045" x="566.4063" y="1861.6623">-deleteTask(CheckBox) : void</text></g><!--class UserSession--><g class="entity" data-entity="UserSession" data-source-line="50" data-uid="ent0011" id="entity_UserSession"><rect fill="#F1F1F1" height="100.4639" rx="3.9063" ry="3.9063" style="stroke:#181818;stroke-width:0.7813;" width="233.3878" x="82.0313" y="1175"/><ellipse cx="127.9983" cy="1200" fill="#C2C2C2" rx="17.1875" ry="17.1875" style="stroke:#181818;stroke-width:1.5625;"/><path d="M132.6369,1208.8135 Q131.7336,1209.2773 130.7327,1209.4971 Q129.7317,1209.7412 128.633,1209.7412 Q124.7268,1209.7412 122.6516,1207.1777 Q120.6008,1204.5898 120.6008,1199.707 Q120.6008,1194.8242 122.6516,1192.2363 Q124.7268,1189.6484 128.633,1189.6484 Q129.7317,1189.6484 130.7327,1189.8926 Q131.758,1190.1367 132.6369,1190.6006 L132.6369,1194.8486 Q131.6604,1193.9453 130.7327,1193.5303 Q129.8049,1193.0908 128.8284,1193.0908 Q126.7287,1193.0908 125.6545,1194.7754 Q124.5803,1196.4355 124.5803,1199.707 Q124.5803,1202.9785 125.6545,1204.6631 Q126.7287,1206.3232 128.8284,1206.3232 Q129.8049,1206.3232 130.7327,1205.9082 Q131.6604,1205.4688 132.6369,1204.5654 L132.6369,1208.8135 Z " fill="#000000"/><text fill="#000000" font-family="sans-serif" font-size="21.875" lengthAdjust="spacing" textLength="133.3221" x="154.8798" y="1207.5729">UserSession</text><line style="stroke:#181818;stroke-width:0.7813;" x1="83.5938" x2="313.8565" y1="1225" y2="1225"/><text fill="#000000" font-family="sans-serif" font-size="21.875" lengthAdjust="spacing" text-decoration="underline" textLength="214.6378" x="91.4063" y="1251.5549">+username : String</text><line style="stroke:#181818;stroke-width:0.7813;" x1="83.5938" x2="313.8565" y1="1262.9639" y2="1262.9639"/></g><g class="entity" data-entity="GMN12" data-source-line="53" data-uid="ent0013" id="entity_GMN12"><path d="M916.4063,1205.4688 L916.4063,1244.7388 L1237.0255,1244.7388 L1237.0255,1221.0938 L1221.4005,1205.4688 L916.4063,1205.4688" fill="#FAFAFA" style="stroke:#181818;stroke-width:0.7813;"/><path d="M1221.4005,1205.4688 L1221.4005,1221.0938 L1237.0255,1221.0938 L1221.4005,1205.4688" fill="#FAFAFA" style="stroke:#181818;stroke-width:1.5625;"/><text fill="#000000" font-family="sans-serif" font-size="20.3125" lengthAdjust="spacing" textLength="287.8067" x="925.7813" y="1232.1358">Static holder (singleton-like)</text></g><!--class DBConnection--><g class="entity" data-entity="DBConnection" data-source-line="55" data-uid="ent0015" id="entity_DBConnection"><rect fill="#F1F1F1" height="100.4639" rx="3.9063" ry="3.9063" style="stroke:#181818;stroke-width:0.7813;" width="358.8913" x="579.6875" y="2015.625"/><ellipse cx="674.6803" cy="2040.625" fill="#C2C2C2" rx="17.1875" ry="17.1875" style="stroke:#181818;stroke-width:1.5625;"/><path d="M679.319,2049.4385 Q678.4157,2049.9023 677.4147,2050.1221 Q676.4137,2050.3662 675.3151,2050.3662 Q671.4088,2050.3662 669.3336,2047.8027 Q667.2829,2045.2148 667.2829,2040.332 Q667.2829,2035.4492 669.3336,2032.8613 Q671.4088,2030.2734 675.3151,2030.2734 Q676.4137,2030.2734 677.4147,2030.5176 Q678.4401,2030.7617 679.319,2031.2256 L679.319,2035.4736 Q678.3424,2034.5703 677.4147,2034.1553 Q676.487,2033.7158 675.5104,2033.7158 Q673.4108,2033.7158 672.3366,2035.4004 Q671.2624,2037.0605 671.2624,2040.332 Q671.2624,2043.6035 672.3366,2045.2881 Q673.4108,2046.9482 675.5104,2046.9482 Q676.487,2046.9482 677.4147,2046.5332 Q678.3424,2046.0938 679.319,2045.1904 L679.319,2049.4385 Z " fill="#000000"/><text fill="#000000" font-family="sans-serif" font-size="21.875" lengthAdjust="spacing" textLength="155.6244" x="706.7116" y="2048.1979">DBConnection</text><line style="stroke:#181818;stroke-width:0.7813;" x1="581.25" x2="937.0163" y1="2065.625" y2="2065.625"/><line style="stroke:#181818;stroke-width:0.7813;" x1="581.25" x2="937.0163" y1="2078.125" y2="2078.125"/><text fill="#000000" font-family="sans-serif" font-size="21.875" lengthAdjust="spacing" text-decoration="underline" textLength="340.1413" x="589.0625" y="2104.6799">+getConnection() : Connection</text></g><!--class MoodData--><g class="entity" data-entity="MoodData" data-source-line="59" data-uid="ent0016" id="entity_MoodData"><rect fill="#F1F1F1" height="399.7803" rx="3.9063" ry="3.9063" style="stroke:#181818;stroke-width:0.7813;" width="467.1555" x="35.1563" y="1495.3125"/><ellipse cx="206.2149" cy="1520.3125" fill="#C2C2C2" rx="17.1875" ry="17.1875" style="stroke:#181818;stroke-width:1.5625;"/><path d="M210.8536,1529.126 Q209.9503,1529.5898 208.9493,1529.8096 Q207.9483,1530.0537 206.8497,1530.0537 Q202.9434,1530.0537 200.8682,1527.4902 Q198.8174,1524.9023 198.8174,1520.0195 Q198.8174,1515.1367 200.8682,1512.5488 Q202.9434,1509.9609 206.8497,1509.9609 Q207.9483,1509.9609 208.9493,1510.2051 Q209.9747,1510.4492 210.8536,1510.9131 L210.8536,1515.1611 Q209.877,1514.2578 208.9493,1513.8428 Q208.0215,1513.4033 207.045,1513.4033 Q204.9454,1513.4033 203.8712,1515.0879 Q202.7969,1516.748 202.7969,1520.0195 Q202.7969,1523.291 203.8712,1524.9756 Q204.9454,1526.6357 207.045,1526.6357 Q208.0215,1526.6357 208.9493,1526.2207 Q209.877,1525.7813 210.8536,1524.8779 L210.8536,1529.126 Z " fill="#000000"/><text fill="#000000" font-family="sans-serif" font-size="21.875" lengthAdjust="spacing" textLength="111.7569" x="238.2462" y="1527.8854">MoodData</text><line style="stroke:#181818;stroke-width:0.7813;" x1="36.7188" x2="500.7492" y1="1545.3125" y2="1545.3125"/><text fill="#000000" font-family="sans-serif" font-size="21.875" lengthAdjust="spacing" text-decoration="underline" textLength="356.9641" x="44.5313" y="1571.8674">+happyAyat : ArrayList&lt;String&gt;</text><text fill="#000000" font-family="sans-serif" font-size="21.875" lengthAdjust="spacing" text-decoration="underline" textLength="327.6657" x="44.5313" y="1597.3312">+sadAyat : ArrayList&lt;String&gt;</text><text fill="#000000" font-family="sans-serif" font-size="21.875" lengthAdjust="spacing" text-decoration="underline" textLength="373.9151" x="44.5313" y="1622.7951">+anxiousAyat : ArrayList&lt;String&gt;</text><text fill="#000000" font-family="sans-serif" font-size="21.875" lengthAdjust="spacing" text-decoration="underline" textLength="381.5414" x="44.5313" y="1648.259">+stressedAyat : ArrayList&lt;String&gt;</text><text fill="#000000" font-family="sans-serif" font-size="21.875" lengthAdjust="spacing" text-decoration="underline" textLength="369.4077" x="44.5313" y="1673.7228">+excitedAyat : ArrayList&lt;String&gt;</text><text fill="#000000" font-family="sans-serif" font-size="21.875" lengthAdjust="spacing" text-decoration="underline" textLength="352.0721" x="44.5313" y="1699.1867">+angryAyat : ArrayList&lt;String&gt;</text><text fill="#000000" font-family="sans-serif" font-size="21.875" lengthAdjust="spacing" text-decoration="underline" textLength="354.7852" x="44.5313" y="1724.6506">+lonelyAyat : ArrayList&lt;String&gt;</text><text fill="#000000" font-family="sans-serif" font-size="21.875" lengthAdjust="spacing" text-decoration="underline" textLength="402.7969" x="44.5313" y="1750.1144">+depressedAyat : ArrayList&lt;String&gt;</text><text fill="#000000" font-family="sans-serif" font-size="21.875" lengthAdjust="spacing" text-decoration="underline" textLength="374.9405" x="44.5313" y="1775.5783">+gratefulAyat : ArrayList&lt;String&gt;</text><text fill="#000000" font-family="sans-serif" font-size="21.875" lengthAdjust="spacing" text-decoration="underline" textLength="397.8302" x="44.5313" y="1801.0422">+frustratedAyat : ArrayList&lt;String&gt;</text><text fill="#000000" font-family="sans-serif" font-size="21.875" lengthAdjust="spacing" text-decoration="underline" textLength="351.1856" x="44.5313" y="1826.506">+happyDua : ArrayList&lt;String&gt;</text><text fill="#000000" font-family="sans-serif" font-size="21.875" lengthAdjust="spacing" text-decoration="underline" textLength="448.4055" x="44.5313" y="1883.6838">+getRandom(ArrayList&lt;String&gt;) : String</text><line style="stroke:#181818;stroke-width:1.5625;stroke-dasharray:1.5625,3.125;" x1="36.7188" x2="174.2378" y1="1850.647" y2="1850.647"/><text fill="#000000" font-family="sans-serif" font-size="21.875" lengthAdjust="spacing" textLength="188.9923" x="174.2378" y="1857.4387">(similar dua lists)</text><line style="stroke:#181818;stroke-width:1.5625;stroke-dasharray:1.5625,3.125;" x1="363.2301" x2="500.7492" y1="1850.647" y2="1850.647"/></g><g class="entity" data-entity="GMN17" data-source-line="74" data-uid="ent0018" id="entity_GMN17"><path d="M1016.4063,1664.0625 L1016.4063,1726.9775 L1239.4798,1726.9775 L1239.4798,1679.6875 L1223.8548,1664.0625 L1016.4063,1664.0625" fill="#FAFAFA" style="stroke:#181818;stroke-width:0.7813;"/><path d="M1223.8548,1664.0625 L1223.8548,1679.6875 L1239.4798,1679.6875 L1223.8548,1664.0625" fill="#FAFAFA" style="stroke:#181818;stroke-width:1.5625;"/><text fill="#000000" font-family="sans-serif" font-size="20.3125" lengthAdjust="spacing" textLength="190.2611" x="1025.7813" y="1690.7295">All members static</text><text fill="#000000" font-family="sans-serif" font-size="20.3125" lengthAdjust="spacing" textLength="153.1372" x="1025.7813" y="1714.3745">(data provider)</text></g><!--class Launcher--><g class="entity" data-entity="Launcher" data-source-line="76" data-uid="ent0020" id="entity_Launcher"><rect fill="#F1F1F1" height="100.4639" rx="3.9063" ry="3.9063" style="stroke:#181818;stroke-width:0.7813;" width="258.7234" x="146.875" y="64.0625"/><ellipse cx="218.7645" cy="89.0625" fill="#C2C2C2" rx="17.1875" ry="17.1875" style="stroke:#181818;stroke-width:1.5625;"/><path d="M223.4032,97.876 Q222.4998,98.3398 221.4989,98.5596 Q220.4979,98.8037 219.3993,98.8037 Q215.493,98.8037 213.4178,96.2402 Q211.367,93.6523 211.367,88.7695 Q211.367,83.8867 213.4178,81.2988 Q215.493,78.7109 219.3993,78.7109 Q220.4979,78.7109 221.4989,78.9551 Q222.5243,79.1992 223.4032,79.6631 L223.4032,83.9111 Q222.4266,83.0078 221.4989,82.5928 Q220.5711,82.1533 219.5946,82.1533 Q217.495,82.1533 216.4207,83.8379 Q215.3465,85.498 215.3465,88.7695 Q215.3465,92.041 216.4207,93.7256 Q217.495,95.3857 219.5946,95.3857 Q220.5711,95.3857 221.4989,94.9707 Q222.4266,94.5313 223.4032,93.6279 L223.4032,97.876 Z " fill="#000000"/><text fill="#000000" font-family="sans-serif" font-size="21.875" lengthAdjust="spacing" textLength="101.6632" x="250.7957" y="96.6354">Launcher</text><line style="stroke:#181818;stroke-width:0.7813;" x1="148.4375" x2="404.0359" y1="114.0625" y2="114.0625"/><line style="stroke:#181818;stroke-width:0.7813;" x1="148.4375" x2="404.0359" y1="126.5625" y2="126.5625"/><text fill="#000000" font-family="sans-serif" font-size="21.875" lengthAdjust="spacing" text-decoration="underline" textLength="239.9734" x="156.25" y="153.1174">+main(String[]) : void</text></g><!--link UserSession to GMN12--><g class="link" data-entity-1="UserSession" data-entity-2="GMN12" data-source-line="53" data-uid="lnk14" id="link_UserSession_GMN12"><path d="M225.375,1174.9844 C254.4844,1126.7656 305.8281,1056.8125 372.6563,1026.5625 C564.3438,939.7813 648.8281,953.3438 846.0938,1026.5625 C944.5938,1063.125 1029.2188,1162.75 1062.0313,1205.3125" fill="none" id="UserSession-GMN12" style="stroke:#181818;stroke-width:1.5625;stroke-dasharray:10.9375,10.9375;"/></g><!--link MoodData to GMN17--><g class="link" data-entity-1="MoodData" data-entity-2="GMN17" data-source-line="74" data-uid="lnk19" id="link_MoodData_GMN17"><path d="M440.9063,1495.0156 C476.125,1465.7969 515.3125,1440 557.0313,1423.4375 C724.1875,1357.0469 804.8125,1335.5156 961.7188,1423.4375 C1055.1406,1475.7813 1102.4063,1604.3281 1119.9219,1663.9688" fill="none" id="MoodData-GMN17" style="stroke:#181818;stroke-width:1.5625;stroke-dasharray:10.9375,10.9375;"/></g><!--link Main to LoginController--><g class="link" data-entity-1="Main" data-entity-2="LoginController" data-source-line="82" data-uid="lnk21" id="link_Main_LoginController"><path codeLine="82" d="M276.5625,411.3594 C276.5625,448.0313 276.5625,484.9219 276.5625,521.5625" fill="none" id="Main-to-LoginController" style="stroke:#181818;stroke-width:1.5625;"/><polygon fill="#181818" points="276.5625,530.9375,282.8125,516.875,276.5625,523.125,270.3125,516.875,276.5625,530.9375" style="stroke:#181818;stroke-width:1.5625;"/><text fill="#000000" font-family="sans-serif" font-size="20.3125" lengthAdjust="spacing" textLength="160.9924" x="278.125" y="478.2295">loads login.fxml</text></g><!--link LoginController to UserSession--><g class="link" data-entity-1="LoginController" data-entity-2="UserSession" data-source-line="83" data-uid="lnk22" id="link_LoginController_UserSession"><path codeLine="83" d="M225.5625,657.9688 C201.3438,691.3594 175.0156,734.5781 162.5,778.125 C122.3281,917.8906 157.7605,1082.7827 180.948,1165.8452" fill="none" id="LoginController-to-UserSession" style="stroke:#181818;stroke-width:1.5625;"/><polygon fill="#181818" points="183.4688,1174.875,185.7075,1159.6499,181.3681,1167.3502,173.6678,1163.0108,183.4688,1174.875" style="stroke:#181818;stroke-width:1.5625;"/><text fill="#000000" font-family="sans-serif" font-size="20.3125" lengthAdjust="spacing" textLength="149.9931" x="164.0625" y="873.542">sets username</text></g><!--link LoginController to DashboardController--><g class="link" data-entity-1="LoginController" data-entity-2="DashboardController" data-source-line="84" data-uid="lnk23" id="link_LoginController_DashboardController"><path codeLine="84" d="M334.1875,658.4219 C367.0156,693.9375 402.2762,732.0851 438.2762,771.0226" fill="none" id="LoginController-to-DashboardController" style="stroke:#181818;stroke-width:1.5625;"/><polygon fill="#181818" points="444.6406,777.9063,439.6832,763.3378,439.337,772.1698,430.5049,771.8236,444.6406,777.9063" style="stroke:#181818;stroke-width:1.5625;"/><text fill="#000000" font-family="sans-serif" font-size="20.3125" lengthAdjust="spacing" textLength="240.4869" x="401.5625" y="725.1045">navigates to dashboard</text></g><!--link DashboardController to UserSession--><g class="link" data-entity-1="DashboardController" data-entity-2="UserSession" data-source-line="86" data-uid="lnk24" id="link_DashboardController_UserSession"><path codeLine="86" d="M341.1875,937.4844 C294.3906,958.5781 252.9219,981.4844 237.5,1001.5625 C199.2656,1051.3438 193.3959,1116.5493 194.5053,1165.2524" fill="none" id="DashboardController-to-UserSession" style="stroke:#181818;stroke-width:1.5625;"/><polygon fill="#181818" points="194.7188,1174.625,200.6469,1160.4238,194.5408,1166.8145,188.1501,1160.7085,194.7188,1174.625" style="stroke:#181818;stroke-width:1.5625;"/><text fill="#000000" font-family="sans-serif" font-size="20.3125" lengthAdjust="spacing" textLength="165.1382" x="239.0625" y="1033.6983">reads username</text></g><!--link DashboardController to MoodController--><g class="link" data-entity-1="DashboardController" data-entity-2="MoodController" data-source-line="87" data-uid="lnk25" id="link_DashboardController_MoodController"><path codeLine="87" d="M446.4063,955.3594 C437,969.9375 428.8281,985.5469 423.4375,1001.5625 C412.8125,1033.0781 414.209,1057.8789 425.4434,1089.1914" fill="none" id="DashboardController-to-MoodController" style="stroke:#181818;stroke-width:1.5625;"/><polygon fill="#181818" points="428.6094,1098.0156,429.7432,1082.6686,425.9711,1090.6621,417.9776,1086.8899,428.6094,1098.0156" style="stroke:#181818;stroke-width:1.5625;"/><text fill="#000000" font-family="sans-serif" font-size="20.3125" lengthAdjust="spacing" textLength="189.1006" x="425" y="1021.9795">sets selectedMood</text><text fill="#000000" font-family="sans-serif" font-size="20.3125" lengthAdjust="spacing" textLength="99.3706" x="469.865" y="1045.6245">navigates</text></g><!--link MoodController to DashboardController--><g class="link" data-entity-1="MoodController" data-entity-2="DashboardController" data-source-line="91" data-uid="lnk28" id="link_MoodController_DashboardController"><path codeLine="91" d="M602.8125,1097.9531 C610.5469,1082.9063 617.1875,1067.2813 621.875,1051.5625 C631.7031,1018.5781 625.5209,992.708 607.8802,963.1299" fill="none" id="MoodController-to-DashboardController" style="stroke:#181818;stroke-width:1.5625;"/><polygon fill="#181818" points="603.0781,955.0781,604.9135,970.3571,607.0799,961.7879,615.6491,963.9543,603.0781,955.0781" style="stroke:#181818;stroke-width:1.5625;"/><text fill="#000000" font-family="sans-serif" font-size="20.3125" lengthAdjust="spacing" textLength="64.1212" x="626.5625" y="1033.6983">back()</text></g><!--link DashboardController to TodoController--><g class="link" data-entity-1="DashboardController" data-entity-2="TodoController" data-source-line="88" data-uid="lnk26" id="link_DashboardController_TodoController"><path codeLine="88" d="M667.9063,954.9219 C682.2813,968.875 695.0938,984.4375 704.6875,1001.5625 C752.5,1086.875 761.6552,1332.7031 761.9677,1508.2031" fill="none" id="DashboardController-to-TodoController" style="stroke:#181818;stroke-width:1.5625;"/><polygon fill="#181818" points="761.9844,1517.5781,768.2093,1503.5045,761.9705,1509.7656,755.7093,1503.5268,761.9844,1517.5781" style="stroke:#181818;stroke-width:1.5625;"/><text fill="#000000" font-family="sans-serif" font-size="20.3125" lengthAdjust="spacing" textLength="99.3706" x="759.375" y="1232.1358">navigates</text></g><!--link MoodController to MoodData--><g class="link" data-entity-1="MoodController" data-entity-2="MoodData" data-source-line="90" data-uid="lnk27" id="link_MoodController_MoodData"><path codeLine="90" d="M385.625,1351.7031 C374.1875,1366.7656 363.5781,1382.4844 354.6875,1398.4375 C338.0625,1428.2969 327.3584,1452.7999 316.1865,1486.0811" fill="none" id="MoodController-to-MoodData" style="stroke:#181818;stroke-width:1.5625;"/><polygon fill="#181818" points="313.2031,1494.9688,323.6033,1483.6262,315.6893,1487.5624,311.7531,1479.6484,313.2031,1494.9688" style="stroke:#181818;stroke-width:1.5625;"/><text fill="#000000" font-family="sans-serif" font-size="20.3125" lengthAdjust="spacing" textLength="155.6366" x="356.4533" y="1418.8545">uses static lists</text><text fill="#000000" font-family="sans-serif" font-size="20.3125" lengthAdjust="spacing" textLength="156.0432" x="356.25" y="1442.4995">&amp; getRandom()</text></g><!--link MoodController to TodoController--><g class="link" data-entity-1="MoodController" data-entity-2="TodoController" data-source-line="92" data-uid="lnk29" id="link_MoodController_TodoController"><path codeLine="92" d="M576.375,1351.7656 C603.6406,1402.7031 631.2019,1454.234 660.7488,1509.4527" fill="none" id="MoodController-to-TodoController" style="stroke:#181818;stroke-width:1.5625;"/><polygon fill="#181818" points="665.1719,1517.7187,664.048,1502.371,661.486,1510.8304,653.0266,1508.2684,665.1719,1517.7187" style="stroke:#181818;stroke-width:1.5625;"/><text fill="#000000" font-family="sans-serif" font-size="20.3125" lengthAdjust="spacing" textLength="99.3706" x="628.125" y="1430.5733">navigates</text></g><!--link TodoController to DBConnection--><g class="link" data-entity-1="TodoController" data-entity-2="DBConnection" data-source-line="94" data-uid="lnk30" id="link_TodoController_DBConnection"><path codeLine="94" d="M759.375,1872.9375 C759.375,1925.2187 759.375,1968.9219 759.375,2005.8438" fill="none" id="TodoController-to-DBConnection" style="stroke:#181818;stroke-width:1.5625;"/><polygon fill="#181818" points="759.375,2015.2188,765.625,2001.1563,759.375,2007.4063,753.125,2001.1563,759.375,2015.2188" style="stroke:#181818;stroke-width:1.5625;"/><text fill="#000000" font-family="sans-serif" font-size="20.3125" lengthAdjust="spacing" textLength="217.1295" x="760.9375" y="1962.6045">uses getConnection()</text></g><!--link Launcher to Main--><g class="link" data-entity-1="Launcher" data-entity-2="Main" data-source-line="96" data-uid="lnk31" id="link_Launcher_Main"><path codeLine="96" d="M276.5625,164.5 C276.5625,199.3906 276.5625,237.2031 276.5625,274.7344" fill="none" id="Launcher-to-Main" style="stroke:#181818;stroke-width:1.5625;"/><polygon fill="#181818" points="276.5625,284.1094,282.8125,270.0469,276.5625,276.2969,270.3125,270.0469,276.5625,284.1094" style="stroke:#181818;stroke-width:1.5625;"/><text fill="#000000" font-family="sans-serif" font-size="20.3125" lengthAdjust="spacing" textLength="173.4894" x="278.125" y="231.3545">calls Main.main()</text></g><!--SRC=[bLPDZzem4BtdL_ZK1bMWxQ4NX93OfIjLOYzbsqktXo4U4XV7Zco7PRlQ_zwnmqUQc1KW8HBxpSoRyVCCTYDK1GPALcgbiyBe4fapDIRsk9D9i7Rcd16hsk6tJAkb-8lifWMn1N3zB5JErY1jsvXNWdt-SfCa5MGRo94PN4lCd1JMiSdaNakEPZfbhqd2caZi0OIYTqQVJymwC2vTEZ8Ti37RQi7tEoN1QCDGr5-_Mtjlz5NQKIIH5sxCSETGSSl-m1RMkn5KbHGPEA7LQ7PwFeLVw5oeEwsSqLAYsJCPijgYKL3YlK39ATmZEGxFUpxIswN_4Jdwd8CjLXeCZ_ZD3QAZ91QmGadMuNVlKoZX14WgTzh9NbUe7hJcwIppzBzkKRa8v55pVGRIekSTzPXzOgzKV2UoDsRH7nboZoC7JT7tz4jQwrCVCdW15rldDLoNwOg4qrrpFgruBZxZI9KTsCt2Qux2qizFWS-JkmAppQtUJLkO-EdwD9tO1gLSnnuuVoIttMLE5NMutDSrXWXfdplS8Hs9gwj39cbdKse8FcrtewuuE0nvh_GkFHIWWsh81L8HHAlMF-XABD5QujWNpU6-j0NJlPlBW6L5w08ijOIYq5eDfTZWe7L_Rkb85OPgz2Fbw4xR8UNJQr_eSt3Gzr5GNtYPaMR9UcOClFZQJXhYqzvz07uf5DHEwDfUxDaPgYTUx1vtcN1u1PlSN9obr0hbnMYErNNKSqDINDVoKlpQr5GTk2BRSARp6ivYHoElkL98CBulCJ-Kx82M8mhx3ehhCkqv6hodxvcKhCHoXSQonjUJIhaNO6NqLf3eMo9VGAso8jP_puywqlP7DaVgz1nL9j3I4NEcO2loPgo5OJeSJdjZRHowX6t6rcYzAsNIXNYpzXKV-wvZZnSxYezDkl614D5pcl4394bYw7vKWvxeCUmveyuKsxDjpwudTIHorajdVhIu9qadmY5ew2XZJ_1moesIdjI7bd86CVDukPgH5yE_nwwp5zot- -QUOQTR9ibHTo4VhvSnoq3Avf_OA8Xly0y0]--></g></svg>